<svg xmlns="http://www.w3.org/2000/svg" xmlns:xlink="http://www.w3.org/1999/xlink" x="0" y="0" enable-background="new 0 0 256 256" version="1.1" viewBox="0 0 256 256" xml:space="preserve"><metadata>Svg Vector Icons : http://www.onlinewebfonts.com/icon</metadata><g><g><path fill="#000" d="M137.5,222.9c-2.5,2.1-3.9,5.3-3.9,8.5v6.5H126c0,0,0-1.7,0-4.7c0-2.5,0.5-4.9,1.4-7.3c2.1-5.4,2.5-11.3,2.5-12.3v-27H128c-1.9,0-3.8,0-5.7-0.1v27c0,1.8-1.2,5.7-2.3,9.2c-0.2-0.2-1.1-0.4-1.4-0.6c-6.3-5.5-16.4-17.6-17.8-37c-34.7-4-62.8-15.5-78.3-31.5V197c0.5,27.1,47.4,49,105.3,49c57.9,0,104.9-21.9,105.4-49.1v-43.1c-15.5,16-43.6,27.6-78.4,31.5C153.3,206.1,143.5,217.8,137.5,222.9z M128,108.7c58.2,0,105.4-22.1,105.4-49.4C233.4,32.1,186.2,10,128,10C69.8,10,22.7,32.1,22.7,59.4C22.7,86.7,69.8,108.7,128,108.7z M101,175.8c1.8-20.1,14.3-36.5,21.3-44.3v45.9c1.8,0,3.8,0.1,5.7,0.1h1.8v-50.3c3.6,3.4,23.8,20,25.3,48.6c44.8-5.6,77.9-24.6,78.2-47.4V85.2c-19.3,19.9-58.2,32.9-105.3,32.9c-47.1,0-86-13.1-105.4-33v43.3C23,151.1,56.1,170.2,101,175.8z"/></g></g></svg>